<svg width="112" height="37" viewBox="0 0 112 37" fill="none" xmlns="http://www.w3.org/2000/svg">
<path d="M0.84 36.0166V0.736601H7.368V36.0166H0.84ZM26.2271 36.7366C23.6191 36.7366 21.3311 36.1526 19.3631 34.9846C17.3951 33.8166 15.8591 32.2086 14.7551 30.1606C13.6671 28.0966 13.1231 25.7286 13.1231 23.0566C13.1231 20.3526 13.6831 17.9766 14.8031 15.9286C15.9231 13.8646 17.4671 12.2566 19.4351 11.1046C21.4031 9.9526 23.6671 9.3766 26.2271 9.3766C28.8351 9.3766 31.1231 9.9606 33.0911 11.1286C35.0751 12.2966 36.6191 13.9126 37.7231 15.9766C38.8271 18.0246 39.3791 20.3846 39.3791 23.0566C39.3791 25.7446 38.8191 28.1206 37.6991 30.1846C36.5951 32.2326 35.0511 33.8406 33.0671 35.0086C31.0991 36.1606 28.8191 36.7366 26.2271 36.7366ZM26.2271 30.6406C28.3231 30.6406 29.8831 29.9366 30.9071 28.5286C31.9471 27.1046 32.4671 25.2806 32.4671 23.0566C32.4671 20.7526 31.9391 18.9126 30.8831 17.5366C29.8431 16.1606 28.2911 15.4726 26.2271 15.4726C24.8031 15.4726 23.6351 15.7926 22.7231 16.4326C21.8111 17.0726 21.1311 17.9606 20.6831 19.0966C20.2511 20.2326 20.0351 21.5526 20.0351 23.0566C20.0351 25.3766 20.5551 27.2246 21.5951 28.6006C22.6511 29.9606 24.1951 30.6406 26.2271 30.6406ZM50.7274 36.0166L41.3194 10.0966H47.8474L53.9914 28.0486L60.1354 10.0966H66.6634L57.2554 36.0166H50.7274ZM82.1111 36.7366C79.4551 36.7366 77.1111 36.1686 75.0791 35.0326C73.0631 33.8806 71.4791 32.3046 70.3271 30.3046C69.1911 28.2886 68.6231 25.9846 68.6231 23.3926C68.6231 20.5606 69.1831 18.0966 70.3031 16.0006C71.4231 13.9046 72.9671 12.2806 74.9351 11.1286C76.9031 9.9606 79.1671 9.3766 81.7271 9.3766C84.4471 9.3766 86.7591 10.0166 88.6631 11.2966C90.5671 12.5766 91.9751 14.3766 92.8871 16.6966C93.7991 19.0166 94.1191 21.7446 93.8471 24.8806H87.3911V22.4806C87.3911 19.8406 86.9671 17.9446 86.1191 16.7926C85.2871 15.6246 83.9191 15.0406 82.0151 15.0406C79.7911 15.0406 78.1511 15.7206 77.0951 17.0806C76.0551 18.4246 75.5351 20.4166 75.5351 23.0566C75.5351 25.4726 76.0551 27.3446 77.0951 28.6726C78.1511 29.9846 79.6951 30.6406 81.7271 30.6406C83.0071 30.6406 84.1031 30.3606 85.0151 29.8006C85.9271 29.2406 86.6231 28.4326 87.1031 27.3766L93.6311 29.2486C92.6551 31.6166 91.1111 33.4566 88.9991 34.7686C86.9031 36.0806 84.6071 36.7366 82.1111 36.7366ZM73.5191 24.8806V20.0326H90.7031V24.8806H73.5191ZM107.186 36.5926C104.69 36.5926 102.946 35.8726 101.954 34.4326C100.994 32.9926 100.514 31.1206 100.514 28.8166V15.9046H97.0583V12.9286L100.706 12.6886L101.186 6.1606H104.498V12.6886H110.786V15.9046H104.498V28.8646C104.498 30.3046 104.754 31.4246 105.266 32.2246C105.81 32.9926 106.754 33.3766 108.098 33.3766C108.514 33.3766 108.962 33.3126 109.442 33.1846C109.922 33.0246 110.354 32.8806 110.738 32.7526L111.506 35.7286C110.866 35.9526 110.162 36.1446 109.394 36.3046C108.658 36.4966 107.922 36.5926 107.186 36.5926Z" fill="white"/>
</svg>
